# xmcd
#
# Track frame offsets: 
#        150
#        105160
#        209457
#
# Disc length: 4210 seconds
#
# Revision: 1
# Processed by: cddbd v1.5.2PL0 Copyright (c) Steve Scherf et al.
# Submitted via: ExactAudioCopy v0.95b4
#
DISCID=1d107003
DTITLE=Jonathan Goldman - Celestial reiki
DYEAR=2000
DGENRE=New Age
TTITLE0=Equinox ~Laraaji Nadananda
TTITLE1=Quiet space ~Laraaji Nadananda
TTITLE2=Light of the ocean ~Laraaji Nadananda
EXTD=
EXTT0=
EXTT1=
EXTT2=
PLAYORDER=
